<?xml version="1.0" encoding="utf-8"?>
<!-- Generator: Adobe Illustrator 27.5.0, SVG Export Plug-In . SVG Version: 6.00 Build 0)  -->
<svg version="1.1" xmlns="http://www.w3.org/2000/svg" xmlns:xlink="http://www.w3.org/1999/xlink" x="0px" y="0px"
	 viewBox="0 0 750 500" style="enable-background:new 0 0 750 500;" xml:space="preserve">
<g id="BACKGROUND">
	<rect style="fill:#FFFFFF;" width="750" height="500"/>
</g>
<g id="OBJECTS">
	<g>
		<path style="fill:#F4F5FF;" d="M83.043,452.893h568.555c23.389-28.093,29.029-71.171,12.529-104.254
			c-11.148-22.352-30.197-38.75-44.34-58.89c-11.267-16.045-20.134-38.33-22.174-58.055c-2.132-20.617,0.439-41.483-2.505-62.044
			c-5.14-35.901-29.046-68.158-60.953-83.54c-31.906-15.382-70.82-13.78-101.859,3.382c-32.839,18.157-56.08,51.692-89.786,68.077
			c-23.136,11.247-49.464,13.483-75.031,12.533c-12.317-0.458-24.952-1.573-36.715,2.217c-15.628,5.036-27.586,18.078-36.956,31.912
			c-9.37,13.834-16.968,29.024-27.863,41.617c-24.316,28.105-64.939,19.256-89.78,46.2c-19.902,21.587-19.681,55.332-14.686,84.655
			C65.927,402.813,73.178,428.411,83.043,452.893z"/>
		<g>
			<g>
				<path style="fill:#E5E7FC;" d="M454.588,138.061h136.581c4.672,0,8.46-3.788,8.46-8.46V57.113c0-4.672-3.788-8.46-8.46-8.46
					H476.416c-4.672,0-8.46,3.788-8.46,8.46v69.682L454.588,138.061z"/>
				<g>
					
						<rect x="482.024" y="61.36" style="fill:none;stroke:#FFFFFF;stroke-width:1.5;stroke-miterlimit:10;" width="103.968" height="64.14"/>
					
						<rect x="482.024" y="61.36" style="fill:none;stroke:#FFFFFF;stroke-width:1.5;stroke-miterlimit:10;" width="103.968" height="12.803"/>
					
						<line style="fill:none;stroke:#FFFFFF;stroke-width:1.5;stroke-miterlimit:10;" x1="482.024" y1="74.163" x2="482.024" y2="125.501"/>
					
						<line style="fill:none;stroke:#FFFFFF;stroke-width:1.5;stroke-miterlimit:10;" x1="508.016" y1="74.163" x2="508.016" y2="125.501"/>
					
						<line style="fill:none;stroke:#FFFFFF;stroke-width:1.5;stroke-miterlimit:10;" x1="534.008" y1="74.163" x2="534.008" y2="125.501"/>
					<line style="fill:none;stroke:#FFFFFF;stroke-width:1.5;stroke-miterlimit:10;" x1="560" y1="74.163" x2="560" y2="125.501"/>
					
						<line style="fill:none;stroke:#FFFFFF;stroke-width:1.5;stroke-miterlimit:10;" x1="585.992" y1="74.163" x2="585.992" y2="125.501"/>
					
						<line style="fill:none;stroke:#FFFFFF;stroke-width:1.5;stroke-miterlimit:10;" x1="482.024" y1="99.832" x2="585.992" y2="99.832"/>
					<path style="fill:none;stroke:#B8BEEE;stroke-width:1.5;stroke-miterlimit:10;" d="M526.786,87.583
						c0,3.189-2.585,5.774-5.774,5.774c-3.189,0-5.774-2.585-5.774-5.774c0-3.189,2.585-5.774,5.774-5.774
						C524.201,81.809,526.786,84.394,526.786,87.583z"/>
					<path style="fill:none;stroke:#B8BEEE;stroke-width:1.5;stroke-miterlimit:10;" d="M577.934,113.389
						c0,3.189-2.585,5.774-5.774,5.774c-3.189,0-5.774-2.585-5.774-5.774c0-3.189,2.585-5.774,5.774-5.774
						C575.349,107.615,577.934,110.2,577.934,113.389z"/>
					<g>
						
							<line style="fill:none;stroke:#B8BEEE;stroke-width:1.5;stroke-miterlimit:10;" x1="579.052" y1="80.296" x2="566.598" y2="92.749"/>
						
							<line style="fill:none;stroke:#B8BEEE;stroke-width:1.5;stroke-miterlimit:10;" x1="566.598" y1="80.296" x2="579.052" y2="92.749"/>
					</g>
					<g>
						
							<line style="fill:none;stroke:#B8BEEE;stroke-width:1.5;stroke-miterlimit:10;" x1="553.231" y1="107.162" x2="540.777" y2="119.616"/>
						
							<line style="fill:none;stroke:#B8BEEE;stroke-width:1.5;stroke-miterlimit:10;" x1="540.777" y1="107.162" x2="553.231" y2="119.616"/>
					</g>
					<g>
						
							<line style="fill:none;stroke:#B8BEEE;stroke-width:1.5;stroke-miterlimit:10;" x1="501.247" y1="81.649" x2="488.793" y2="94.102"/>
						
							<line style="fill:none;stroke:#B8BEEE;stroke-width:1.5;stroke-miterlimit:10;" x1="488.793" y1="81.649" x2="501.247" y2="94.102"/>
					</g>
				</g>
			</g>
			<g>
				<path style="fill:#E5E7FC;" d="M289.02,133.184H149.252c-4.95,0-8.962-4.013-8.962-8.963V47.427c0-4.95,4.013-8.962,8.962-8.962
					h116.644c4.95,0,8.962,4.013,8.962,8.962v73.822L289.02,133.184z"/>
				<g>
					<rect x="156.256" y="49.084" style="fill:#FFFFFF;" width="65.846" height="42.851"/>
					<polyline style="fill:none;stroke:#D5DCF7;stroke-width:1.5;stroke-miterlimit:10;" points="156.256,91.935 189.179,70.51 
						222.102,91.935 					"/>
					<polyline style="fill:#FFFFFF;stroke:#D5DCF7;stroke-width:1.5;stroke-miterlimit:10;" points="156.256,49.084 189.179,79.608 
						222.102,49.084 					"/>
				</g>
				<g>
					<rect x="212.312" y="78.189" style="fill:#B8BEEE;" width="49.256" height="32.054"/>
					<polyline style="fill:#B8BEEE;stroke:#8C98E0;stroke-width:1.5;stroke-miterlimit:10;" points="212.312,110.243 236.94,94.216 
						261.568,110.243 					"/>
					<polyline style="fill:#B8BEEE;stroke:#8C98E0;stroke-width:1.5;stroke-miterlimit:10;" points="212.312,78.189 236.94,101.022 
						261.568,78.189 					"/>
				</g>
				<g>
					
						<ellipse transform="matrix(0.7071 -0.7071 0.7071 0.7071 34.9233 192.465)" style="fill:#B8BEEE;" cx="249.787" cy="54.076" rx="11.036" ry="11.036"/>
					<g>
						<path style="fill:#FFFFFF;" d="M248.05,59.778c0-0.622,0.17-1.059,0.511-1.31c0.341-0.251,0.753-0.377,1.236-0.377
							c0.47,0,0.875,0.126,1.216,0.377c0.341,0.251,0.511,0.688,0.511,1.31c0,0.596-0.17,1.026-0.511,1.291
							c-0.341,0.265-0.746,0.397-1.216,0.397c-0.483,0-0.895-0.132-1.236-0.397C248.221,60.804,248.05,60.374,248.05,59.778z
							 M251.018,56.384h-2.422l-0.506-9.697h3.434L251.018,56.384z"/>
					</g>
				</g>
				
					<line style="fill:none;stroke:#FFFFFF;stroke-width:1.5;stroke-miterlimit:10;" x1="156.256" y1="104.218" x2="194.494" y2="104.218"/>
				
					<line style="fill:none;stroke:#FFFFFF;stroke-width:1.5;stroke-miterlimit:10;" x1="156.256" y1="111.384" x2="194.494" y2="111.384"/>
				
					<line style="fill:none;stroke:#FFFFFF;stroke-width:1.5;stroke-miterlimit:10;" x1="156.256" y1="118.55" x2="177.757" y2="118.55"/>
			</g>
			<g>
				<path style="fill:#FFFFFF;" d="M451.805,193.842h54.76c1.074,0,1.945-0.871,1.945-1.945v-16.667
					c0-1.074-0.871-1.945-1.945-1.945H459.7c-1.074,0-1.945,0.871-1.945,1.945v14.863L451.805,193.842z"/>
				
					<line style="fill:none;stroke:#D5DCF7;stroke-width:1.5;stroke-miterlimit:10;" x1="465.226" y1="180.598" x2="500.456" y2="180.598"/>
				
					<line style="fill:none;stroke:#D5DCF7;stroke-width:1.5;stroke-miterlimit:10;" x1="465.226" y1="186.528" x2="489.38" y2="186.528"/>
			</g>
			<path style="fill:none;stroke:#D5DCF7;stroke-width:1.5;stroke-miterlimit:10;" d="M242.056,164.624h-17.552
				c-4.283,0-7.754-3.472-7.754-7.754l0,0c0-4.283,3.472-7.754,7.754-7.754h17.552c4.283,0,7.754,3.472,7.754,7.754l0,0
				C249.81,161.152,246.338,164.624,242.056,164.624z"/>
			<path style="fill:none;stroke:#D5DCF7;stroke-width:1.5;stroke-miterlimit:10;" d="M441.032,65.845H423.48
				c-4.283,0-7.754-3.472-7.754-7.754l0,0c0-4.283,3.472-7.754,7.754-7.754h17.552c4.283,0,7.754,3.472,7.754,7.754l0,0
				C448.786,62.374,445.315,65.845,441.032,65.845z"/>
			<path style="fill:none;stroke:#D5DCF7;stroke-width:1.5;stroke-miterlimit:10;" d="M518.269,323.464h-17.552
				c-4.283,0-7.754-3.472-7.754-7.754l0,0c0-4.283,3.472-7.754,7.754-7.754h17.552c4.283,0,7.754,3.472,7.754,7.754l0,0
				C526.023,319.992,522.551,323.464,518.269,323.464z"/>
			<path style="fill:none;stroke:#D5DCF7;stroke-width:1.5;stroke-miterlimit:10;" d="M469.795,55.581h-37.88
				c-4.283,0-7.754-3.472-7.754-7.754l0,0c0-4.283,3.472-7.754,7.754-7.754h37.88c4.283,0,7.754,3.472,7.754,7.754l0,0
				C477.549,52.11,474.078,55.581,469.795,55.581z"/>
			<g>
				
					<line style="fill:none;stroke:#D5DCF7;stroke-width:1.5;stroke-miterlimit:10;" x1="445.369" y1="169.889" x2="439.092" y2="176.166"/>
				
					<line style="fill:none;stroke:#D5DCF7;stroke-width:1.5;stroke-miterlimit:10;" x1="439.092" y1="169.889" x2="445.369" y2="176.166"/>
			</g>
			<g>
				
					<line style="fill:none;stroke:#D5DCF7;stroke-width:1.5;stroke-miterlimit:10;" x1="288.343" y1="306.252" x2="282.065" y2="312.529"/>
				
					<line style="fill:none;stroke:#D5DCF7;stroke-width:1.5;stroke-miterlimit:10;" x1="282.065" y1="306.252" x2="288.343" y2="312.529"/>
			</g>
			<g>
				
					<line style="fill:none;stroke:#D5DCF7;stroke-width:1.5;stroke-miterlimit:10;" x1="637.812" y1="114.06" x2="631.535" y2="120.337"/>
				
					<line style="fill:none;stroke:#D5DCF7;stroke-width:1.5;stroke-miterlimit:10;" x1="631.535" y1="114.06" x2="637.812" y2="120.337"/>
			</g>
			<g>
				
					<line style="fill:none;stroke:#D5DCF7;stroke-width:1.5;stroke-miterlimit:10;" x1="480.688" y1="283.162" x2="474.411" y2="289.44"/>
				
					<line style="fill:none;stroke:#D5DCF7;stroke-width:1.5;stroke-miterlimit:10;" x1="474.411" y1="283.162" x2="480.688" y2="289.44"/>
			</g>
			<g>
				
					<line style="fill:none;stroke:#D5DCF7;stroke-width:1.5;stroke-miterlimit:10;" x1="156.246" y1="157.396" x2="149.968" y2="163.674"/>
				
					<line style="fill:none;stroke:#D5DCF7;stroke-width:1.5;stroke-miterlimit:10;" x1="149.968" y1="157.396" x2="156.246" y2="163.674"/>
			</g>
			
				<line style="fill:none;stroke:#D5DCF7;stroke-width:1.5;stroke-miterlimit:10;" x1="560.774" y1="147.644" x2="609.895" y2="147.644"/>
			
				<line style="fill:none;stroke:#D5DCF7;stroke-width:1.5;stroke-miterlimit:10;" x1="129.836" y1="43.041" x2="178.956" y2="43.041"/>
			
				<line style="fill:none;stroke:#D5DCF7;stroke-width:1.5;stroke-miterlimit:10;" x1="294.412" y1="75.527" x2="320.926" y2="75.527"/>
			
				<line style="fill:none;stroke:#D5DCF7;stroke-width:1.5;stroke-miterlimit:10;" x1="273.247" y1="275.603" x2="299.761" y2="275.603"/>
			
				<line style="fill:none;stroke:#D5DCF7;stroke-width:1.5;stroke-miterlimit:10;" x1="330.518" y1="75.527" x2="369.059" y2="75.527"/>
		</g>
	</g>
	<g>
		<g>
			
				<line style="fill:none;stroke:#B8BEEE;stroke-width:1.5;stroke-linejoin:round;stroke-miterlimit:10;" x1="551.671" y1="439.091" x2="551.671" y2="453.246"/>
			
				<line style="fill:none;stroke:#B8BEEE;stroke-width:1.5;stroke-linejoin:round;stroke-miterlimit:10;" x1="628.23" y1="439.091" x2="628.23" y2="453.246"/>
			
				<line style="fill:none;stroke:#B8BEEE;stroke-width:1.5;stroke-linejoin:round;stroke-miterlimit:10;" x1="588.255" y1="439.091" x2="588.255" y2="453.246"/>
			
				<line style="fill:none;stroke:#B8BEEE;stroke-width:1.5;stroke-linejoin:round;stroke-miterlimit:10;" x1="664.815" y1="439.091" x2="664.815" y2="453.246"/>
			<rect x="546.668" y="242.193" style="fill:#FFFFFF;" width="88.005" height="200.902"/>
			
				<rect x="634.673" y="242.193" transform="matrix(-1 -1.224647e-16 1.224647e-16 -1 1305.9399 685.2876)" style="fill:#E5E7FC;" width="36.593" height="200.902"/>
			
				<circle style="fill:none;stroke:#B8BEEE;stroke-width:1.5;stroke-linejoin:round;stroke-miterlimit:10;" cx="589.373" cy="256.36" r="4.038"/>
			
				<line style="fill:none;stroke:#B8BEEE;stroke-width:1.5;stroke-linejoin:round;stroke-miterlimit:10;" x1="546.668" y1="292.418" x2="671.267" y2="292.418"/>
			
				<circle style="fill:none;stroke:#B8BEEE;stroke-width:1.5;stroke-linejoin:round;stroke-miterlimit:10;" cx="589.373" cy="305.352" r="4.038"/>
			
				<line style="fill:none;stroke:#B8BEEE;stroke-width:1.5;stroke-linejoin:round;stroke-miterlimit:10;" x1="546.668" y1="342.644" x2="671.267" y2="342.644"/>
			
				<circle style="fill:none;stroke:#B8BEEE;stroke-width:1.5;stroke-linejoin:round;stroke-miterlimit:10;" cx="589.373" cy="354.345" r="4.038"/>
			
				<line style="fill:none;stroke:#B8BEEE;stroke-width:1.5;stroke-linejoin:round;stroke-miterlimit:10;" x1="546.668" y1="392.869" x2="671.267" y2="392.869"/>
			
				<circle style="fill:none;stroke:#B8BEEE;stroke-width:1.5;stroke-linejoin:round;stroke-miterlimit:10;" cx="589.373" cy="403.337" r="4.038"/>
		</g>
		<g>
			<path style="fill:#FCDE9D;" d="M648.771,241.369h-82.355v-17.971h82.355c4.963,0,8.985,4.023,8.985,8.985v0
				C657.756,237.346,653.733,241.369,648.771,241.369z"/>
			<path style="fill:none;stroke:#FBAD27;stroke-miterlimit:10;" d="M619.669,223.902c4.684,0,8.481,3.797,8.481,8.481v0
				c0,4.684-3.797,8.481-8.481,8.481"/>
			<path style="fill:#FFFFFF;" d="M619.55,226.586h-53.135v11.595h53.135c3.202,0,5.797-2.596,5.797-5.797v0
				C625.348,229.182,622.752,226.586,619.55,226.586z"/>
		</g>
		<g>
			<path style="fill:#EA7A4E;" d="M638.885,223.398H556.53v-17.971h82.355c4.963,0,8.985,4.023,8.985,8.985v0
				C647.871,219.375,643.848,223.398,638.885,223.398z"/>
			<path style="fill:none;stroke:#D6623E;stroke-miterlimit:10;" d="M609.784,205.931c4.684,0,8.481,3.797,8.481,8.481v0
				c0,4.684-3.797,8.481-8.481,8.481"/>
			<path style="fill:#FFFFFF;" d="M609.651,208.615h-53.134v11.595h53.134c3.202,0,5.797-2.596,5.797-5.797v0
				C615.448,211.211,612.853,208.615,609.651,208.615z"/>
		</g>
		<g>
			<path style="fill:#E5E7FC;" d="M645.397,205.427h-82.355v-17.971h82.355c4.962,0,8.985,4.023,8.985,8.985v0
				C654.383,201.404,650.36,205.427,645.397,205.427z"/>
			<path style="fill:none;stroke:#BBC1EA;stroke-miterlimit:10;" d="M616.296,187.96c4.684,0,8.481,3.797,8.481,8.481v0
				c0,4.684-3.797,8.481-8.481,8.481"/>
			<path style="fill:#FFFFFF;" d="M616.177,190.644h-53.134v11.595h53.134c3.202,0,5.797-2.596,5.797-5.797v0
				C621.974,193.24,619.378,190.644,616.177,190.644z"/>
		</g>
	</g>
	<g>
		<g>
			<path style="fill:#B8BEEE;" d="M402.948,325.731H305.2v0c0-7.266,5.89-13.156,13.156-13.156h71.436
				C397.058,312.575,402.948,318.465,402.948,325.731L402.948,325.731z"/>
			
				<line style="fill:none;stroke:#7983ED;stroke-width:1.5;stroke-miterlimit:10;" x1="354.074" y1="325.731" x2="354.074" y2="445.552"/>
			<path style="fill:#B8BEEE;" d="M354.074,441.09c-16.823,6.509-32.487,4.462-35.272,12.156h70.543
				C386.561,445.552,370.897,447.599,354.074,441.09z"/>
		</g>
		<g>
			<g>
				<g>
					<path style="fill:#381A04;" d="M399.495,154.891c-3.624-3.24-8.649-5.017-13.452-4.266c0.261-4.426-0.604-9.031-3.127-12.676
						c-2.523-3.645-6.865-6.169-11.286-5.843c-10.24-2.325-20.481-4.65-30.721-6.975c-7.292-1.656-14.931-4.627-22.571-2.75
						c-6.023,1.479-11.681,6.699-12.345,13.055c-0.432,4.136,0.263,5.557,1.408,9.136c-3.747-0.468-6.937,0.286-11.61,1.77
						c-11.819,3.752-19.871,17.111-17.285,29.352c3.061,14.494,18.488,24.377,32.911,25.086c1.511,3.426,3.919,6.52,6.863,8.827
						c6.156,4.824,14.191,6.667,22.009,6.917c6.566,0.21,13.375-0.685,19.005-4.071c4.338-2.608,7.692-6.704,9.617-11.38
						c10.622-1.273,20.808-6.129,28.497-13.565C406.398,178.812,409.89,164.184,399.495,154.891z"/>
					<path style="fill:none;stroke:#381A04;stroke-miterlimit:10;" d="M331.569,122.922c-7.767-3.241-18.337-2.5-24.347,3.756
						c-5.925,6.167-6.214,15.971-1.352,22.8"/>
					<path style="fill:none;stroke:#381A04;stroke-miterlimit:10;" d="M313.044,142.122c-8.119-4.197-18.996-1.1-26.014,3.964
						c-7.881,5.686-12.517,15.168-11.373,25.389c1.949,17.404,19.532,28.74,35.382,28.262"/>
					<path style="fill:none;stroke:#381A04;stroke-miterlimit:10;" d="M372.283,131.571c8.381,0.087,16.68,4.881,19.816,12.089
						c3.136,7.208,0.428,16.396-6.607,20.62"/>
				</g>
				<path style="fill:#BC6344;" d="M377.043,131.408c-0.095-2.281-0.112-4.568-0.183-6.851c-0.071-2.276-0.15-4.552-0.238-6.827
					c-0.087-2.246,0.135-4.802-0.31-7.004c-0.686-3.392-3.116-6.623-5.995-8.459c-3.901-2.488-8.629-2.446-12.993-1.402
					c-2.346,0.561-5.082,1.379-6.94,2.968c-9.418,8.056-8.236,22.938-2.004,32.225c2.983,4.445,9.109,7.614,14.372,7.991
					c5.01,0.359,11.552-1.058,13.647-6.305c0.789-1.975,0.743-4.079,0.652-6.159C377.048,131.527,377.045,131.467,377.043,131.408z"
					/>
				<polyline style="fill:#BC6344;" points="341.624,128.137 330.651,153.986 322.603,159.229 362.353,193.491 370.644,159.473 
					362.718,154.108 366.376,137.403 				"/>
				<path style="fill:#381A04;" d="M329.538,126.465c-2.565-14.211,5.692-25.549,17.605-29.616
					c10.843-3.702,18.96-1.929,25.039,4.657c5.732,6.21,4.421,13.608,4.421,13.608c-5.431-0.975-10.805-4.082-14.233-8.507
					c-0.16,2.078-2.915,6.014-4.385,7.455c-4.684,4.594-7.526,7.057-13.321,9.216l-7.844,16.175L329.538,126.465z"/>
				<path style="fill:none;stroke:#5B3318;stroke-miterlimit:10;" d="M357.388,103.942c-1.421,3.493-2.851,7.006-4.891,10.218
					s-4.742,6.141-8.213,7.988"/>
				<path style="fill:none;stroke:#2A282C;stroke-linejoin:round;stroke-miterlimit:10;" d="M352.482,139.856
					c2.678,2.521,6.088,4.132,9.628,4.548c0.895,0.105,1.796,0.136,2.696,0.166"/>
				<path style="fill:none;stroke:#2A282C;stroke-linejoin:round;stroke-miterlimit:10;" d="M369.059,120.669
					c0.155,1.669,0.402,3.225,1.083,4.767c0.599,1.358,2.162,3.62,1.432,5.158c-0.409,0.861-1.724,0.772-2.514,0.772"/>
				<path style="fill:none;stroke:#2A282C;stroke-linejoin:round;stroke-miterlimit:10;" d="M356.642,119.122
					c1.515-1.433,4.682-1.668,7.241,0"/>
				<path style="fill:#2A282C;" d="M363.456,124.904c0,0.817-0.445,1.479-0.995,1.479c-0.55,0-0.995-0.662-0.995-1.479
					c0-0.817,0.445-1.479,0.995-1.479C363.011,123.425,363.456,124.087,363.456,124.904z"/>
				<path style="fill:#2A282C;" d="M375.984,124.147c0,0.817-0.445,1.479-0.995,1.479c-0.55,0-0.995-0.662-0.995-1.479
					c0-0.817,0.445-1.479,0.995-1.479C375.538,122.668,375.984,123.33,375.984,124.147z"/>
				<path style="fill:none;stroke:#2A282C;stroke-linejoin:round;stroke-miterlimit:10;" d="M372.177,118.971
					c1.133-1.018,3.779-2.071,4.84-0.383"/>
				<path style="fill:none;stroke:#2A282C;stroke-linejoin:round;stroke-miterlimit:10;" d="M365.876,132.335
					c-0.723,1.422-0.283,3.339,1.427,3.706c1.12,0.24,2.598-0.172,3.208-1.199"/>
				<g>
					<path style="fill:none;stroke:#FBAD27;stroke-miterlimit:10;" d="M354.103,123.128c-0.314,1.317,6.811,6.775,9.222,5.902
						c2.41-0.872,3.982-5.921,3.563-6.645C366.469,121.661,354.558,121.224,354.103,123.128z"/>
					<path style="fill:none;stroke:#FBAD27;stroke-miterlimit:10;" d="M381.215,121.349c0.447,1.266-4.536,7.515-6.616,6.939
						c-2.081-0.576-4.09-5.383-3.855-6.15S380.569,119.519,381.215,121.349z"/>
					<line style="fill:none;stroke:#FBAD27;stroke-miterlimit:10;" x1="366.956" y1="122.741" x2="370.644" y2="122.595"/>
					<line style="fill:none;stroke:#FBAD27;stroke-miterlimit:10;" x1="354.103" y1="123.128" x2="345.548" y2="122.147"/>
				</g>
				<g>
					<path style="fill:#BC6344;" d="M347.863,124.13c-0.412-1.951-1.79-4.051-3.855-4.499c-1.959-0.425-3.93,0.881-4.712,2.644
						c-1.074,2.421-0.788,5.45,0.316,7.807c1.126,2.405,3.744,4.744,6.55,3.543c1.061-0.454,1.909-1.353,2.237-2.466"/>
					<path style="fill:none;stroke:#2A282C;stroke-linejoin:round;stroke-miterlimit:10;" d="M342.213,123.736
						c1.486,1.679,2.871,3.448,4.142,5.294"/>
					<path style="fill:none;stroke:#2A282C;stroke-linejoin:round;stroke-miterlimit:10;" d="M346.38,121.036
						c0.739,1.019,1.275,2.185,1.565,3.41"/>
					<path style="fill:none;stroke:#2A282C;stroke-linejoin:round;stroke-miterlimit:10;" d="M348.146,132.107
						c-0.602,0.84-1.512,1.454-2.516,1.698c-1.919,0.466-3.95-0.495-5.217-1.919"/>
				</g>
			</g>
			<g>
				<g>
					<g>
						<path style="fill:#BC6344;" d="M402.265,440.591c5.808,2.961,29.327-0.267,29.327-0.267
							c-3.945-1.868-12.326-8.206-15.684-11.071c-3.266-2.786-3.719-14.658-3.856-18.756c-15.482-0.853-44.075-2.144-44.075-2.144
							l-0.33,19.301C372.227,428.623,396.457,437.63,402.265,440.591z"/>
						<path style="fill:#2B1A12;" d="M443.001,446.383c-3.875-3.591-13.245-7.051-13.245-7.051s-15.168,2.815-27.819-1.77
							c-6.129-2.221-13.938-6.922-17.963-8.754c-6.053-2.754-16.64-3.518-16.64-3.518c-0.941,9.733,1.284,27.603,1.284,27.603
							h13.066l0.021-15.249c0,0,4.061,2.174,6.842,5.211c2.759,3.012,3.476,10.038,11.531,10.038h46.46
							C446.539,452.893,446.026,449.185,443.001,446.383z"/>
					</g>
					<path style="fill:#4F2D31;" d="M371.459,302.774c2.141,12.78,1.352,26.073-2.283,38.487
						c-2.127,7.262-5.198,14.189-7.644,21.343c-5.685,16.631-15.475,35.479-14.908,53.281l67.392,6.701
						c0,0,11.165-99.703,13.208-115.885c2.043-16.181-1.258-42.763-26.37-42.763c-25.112,0-41.109,0-41.109,0"/>
					<path style="fill:none;stroke:#824E58;stroke-miterlimit:10;" d="M397.27,420.411c0,0,3.637-22.601,5.611-36.817
						c3.94-28.381,7.007-57.721,9.626-83.826c0.683-6.809,1.277-14.096-2-20.103c-2.452-4.497-6.75-7.639-10.925-10.607"/>
				</g>
				<g>
					<g>
						<path style="fill:#BC6344;" d="M499.754,421.608c6.297,1.684,28.627-6.378,28.627-6.378v0
							c-5.778-1.366-23.359-10.678-25.836-12.513c-3.679-2.725-12.672-19.123-12.672-19.123l-34.244,14.438
							c4.095,8.671,6.593,18.352,6.593,18.352C466.903,416.378,493.457,419.924,499.754,421.608z"/>
						<path style="fill:#2B1A12;" d="M540.803,418.776c-4.539-2.704-14.616-4.061-14.616-4.061s-14.055,5.845-27.384,3.999
							c-6.457-0.894-16.053-3.654-20.372-4.606c-6.494-1.431-17.008,0.031-17.008,0.031c1.11,9.715,10.068,26.077,10.068,26.077
							l12.779-2.725l-6.215-14.267c0,0,5.403,1.07,8.757,3.461c3.326,2.37,5.493,9.092,13.371,7.412l45.438-9.691
							C545.62,424.405,544.345,420.886,540.803,418.776z"/>
					</g>
					<path style="fill:#4F2D31;" d="M312.517,254.833c0,0-5.908,30.195-3.282,40.041c2.626,9.846,5.485,17.701,22.912,17.701
						s61.915,0,73.568,0c11.652,0,4.551,80.321,29.208,110.011l60.079-30.563c0,0-41.292-95.139-47.856-104.761
						c-6.564-9.622-12.862-22.367-34.524-22.367c-21.662,0-47.83,0-47.83,0"/>
					<path style="fill:none;stroke:#1F1D21;stroke-linejoin:round;stroke-miterlimit:10;" d="M373,312.575
						c17.427,0,21.062,0,32.715,0c7.694,0,7.211,35.023,13.095,67.364"/>
					<path style="fill:none;stroke:#824E58;stroke-miterlimit:10;" d="M332.189,263.769c-2.276,9.973,11.19,10.852,17.865,10.882
						c15.425,0.07,30.868-0.133,46.298-0.216c8.474-0.046,17.755,0.103,25.741,3.73c9.162,4.161,14.818,13.142,18.914,21.972
						c7.607,16.397,44.27,96.832,44.27,96.832"/>
					<path style="fill:none;stroke:#1F1D21;stroke-linejoin:round;stroke-miterlimit:10;" d="M406.53,312.66
						c3.262,0.18,6.502,0.766,9.621,1.74"/>
					<path style="fill:none;stroke:#1F1D21;stroke-linejoin:round;stroke-miterlimit:10;" d="M428.777,323.41
						c8.327,7.302,17.35,13.811,26.906,19.41"/>
					<path style="fill:none;stroke:#1F1D21;stroke-linejoin:round;stroke-miterlimit:10;" d="M439.423,342.644
						c5.236,5.479,10.886,10.561,16.886,15.191"/>
				</g>
			</g>
			<g>
				<polyline style="fill:#FFFFFF;" points="413.287,154.773 411.884,148.589 388.55,155.308 390.75,166.532 				"/>
				<path style="fill:#FBAD27;" d="M413.139,152.68l-25.015,7.386l3.594,15.904c0,0-6.026-7.412-8.913-11.013
					c-2.626-3.276-11.87-7.095-11.87-7.095l12.6,53.85c0,0,9.348,7.534,18.247,13.147c8,5.046,18.03,10.167,24.917,3.021
					c4.268-4.429,7.681-15.332,3.975-28.273C424.439,177.832,413.139,152.68,413.139,152.68z"/>
				<path style="fill:#F4F5FF;" d="M329.069,151.079l23.146,18.792l7.019,11.236V168.92l6.83-12.547l12.152,15.319
					c0,0,10.179,65.782,11.706,69.663c1.527,3.881,12.958,22.584,12.958,22.584h-88.538L305.2,167.62L329.069,151.079z"/>
				<path style="fill:#FBAD27;" d="M382.146,179.265c9.43,22.474,5.358,35.072,10.367,58.925
					c1.807,8.605,10.367,25.749,10.367,25.749c-20.043,0.807-26.197-51.897-31.075-77.557c-1.579-8.304-4.035-24.674-5.688-32.964
					l11.752,9.707L382.146,179.265z"/>
				<polygon style="fill:#F4F5FF;" points="331.491,145.402 352.215,169.872 334.101,183.086 322.603,154.537 				"/>
				<polyline style="fill:none;stroke:#A56F21;stroke-linejoin:round;stroke-miterlimit:10;" points="352.215,169.872 
					334.101,183.086 322.603,154.537 				"/>
				<polygon style="fill:#F4F5FF;" points="364.502,152.225 359.235,168.92 373,179.966 372.189,156.87 				"/>
				<polyline style="fill:none;stroke:#A56F21;stroke-linejoin:round;stroke-miterlimit:10;" points="359.235,168.92 373,179.966 
					372.189,156.87 				"/>
				<path style="fill:#BC6344;" d="M402.089,140.317c-1.354-0.775-2.059-1.172-3.58-1.579c-3.557-0.953-5.581-0.711-9.247-0.365
					c-2.557,0.241-6.525,1.192-8.91,2.145c-6.379,2.549-9.968,9.511-9.641,15.89c0.025,0.495,0.153,1.516,0.417,1.935
					c0.264,0.42,0.729,0.201,1.189,0.016c0.389-0.157,0.701-0.835,0.869-1.219c0.982-2.243,1.398-5.106,2.735-6.556
					c-0.342,1.19-0.586,2.499-0.465,3.732c0.118,1.197,0.799,2.482,1.99,2.9c0.267,0.094,0.555,0.143,0.793,0.297
					c0.323,0.208,0.503,0.572,0.749,0.866c0.559,0.669,1.52,0.972,2.362,0.745c0.339,1.608,0.677,3.216,1.016,4.824
					c0.077,0.365,0.167,0.754,0.44,1.008c0.339,0.315,0.891,0.322,1.295,0.096c0.404-0.226,0.672-0.643,0.821-1.081
					c0.538-1.582-0.281-3.498,0.608-4.913c0.382-0.609,1.02-1.005,1.642-1.366c7.294-4.231,15.492-6.616,23.64-8.788
					C408.568,145.462,405.622,142.339,402.089,140.317z"/>
				<path style="fill:none;stroke:#2A282C;stroke-linejoin:round;stroke-miterlimit:10;" d="M398.509,152.646
					c2.11-1.599,4.46-3.002,6.461-4.72"/>
				<path style="fill:none;stroke:#2A282C;stroke-linejoin:round;stroke-miterlimit:10;" d="M381.552,159.111
					c-0.343-1.397,0.095-2.87,0.716-4.167c0.811-1.694,1.945-3.233,3.321-4.51"/>
				<path style="fill:none;stroke:#2A282C;stroke-linejoin:round;stroke-miterlimit:10;" d="M378.074,157.14
					c-0.537-3.353,0.613-6.882,3.094-9.497"/>
				<path style="fill:none;stroke:#2A282C;stroke-linejoin:round;stroke-miterlimit:10;" d="M376.418,150.434
					c0.55-2.655,1.555-4.243,2.903-6.331"/>
				<g>
					<g>
						
							<rect x="366.743" y="141.46" transform="matrix(0.1929 -0.9812 0.9812 0.1929 149.9579 481.6302)" style="fill:#F99C6E;" width="2" height="16.404"/>
					</g>
					<polygon style="fill:#F9CDA5;" points="356.558,147.388 359.503,149.061 359.888,147.098 					"/>
					<polygon style="fill:#2A282C;" points="357.839,147.277 357.689,148.03 356.558,147.388 					"/>
				</g>
				
					<line style="fill:none;stroke:#2A282C;stroke-linejoin:round;stroke-miterlimit:10;" x1="391.718" y1="175.969" x2="400.908" y2="214.298"/>
				<path style="fill:none;stroke:#2A282C;stroke-linejoin:round;stroke-miterlimit:10;" d="M389.49,218.677
					c0.364-6.058,0.727-12.14,0.254-18.191c-0.473-6.051-1.814-12.111-4.68-17.461"/>
				<path style="fill:none;stroke:#A56F21;stroke-linejoin:round;stroke-miterlimit:10;" d="M359.235,181.108
					c0,0,3.565,16.689,5.572,27.571c3.474,18.838,7.624,37.165,13.063,55.532"/>
				<circle style="fill:#A56F21;" cx="356.558" cy="184.975" r="1.412"/>
				<circle style="fill:#A56F21;" cx="361.3" cy="208.258" r="1.412"/>
				<circle style="fill:#A56F21;" cx="365.644" cy="233.079" r="1.412"/>
				<circle style="fill:#A56F21;" cx="371.588" cy="256.924" r="1.412"/>
			</g>
		</g>
		<g>
			<g>
				<path style="fill:#BC6344;" d="M364.63,218.804c11.327-3.265,26.498-7.766,36.117-0.947c1.626,1.152,3.094,2.587,4.541,4.036
					c2.107,2.111,4.179,4.272,6.213,6.481c0.522,0.567,1.091,1.289,0.979,2.09c-1.439,1.201-3.491,0.872-5.161,0.003
					c-1.67-0.87-3.154-2.211-4.843-3.023c2.214,3.235,2.98,7.426,3.677,11.439c0.036,0.209,0.071,0.436-0.009,0.622
					c-0.077,0.182-0.247,0.282-0.414,0.341c-0.667,0.238-1.461-0.026-1.947-0.647c-0.67,1.211-2.323,0.973-3.366,0.106
					s-2.836-2.493-3.898-3.327c0.591,1.134,2.48,3.933,1.952,4.456c-0.528,0.522-2.412,0.343-3.796-0.919
					c-1.228-1.119-2.089-2.262-3.358-3.291c-1.009-0.818-5.51-2.567-7.89-0.654c-4.345,3.493-8.677,3.208-14.117,3.3"/>
				<path style="fill:none;stroke:#2A282C;stroke-linejoin:round;stroke-miterlimit:10;" d="M387.844,228.958
					c1.766,0.776,3.563,1.597,5.023,2.947c1.548,1.432,2.918,3.154,4.128,4.915"/>
				<path style="fill:none;stroke:#2A282C;stroke-linejoin:round;stroke-miterlimit:10;" d="M392.419,225.608
					c3.281,1.776,6.134,4.243,8.29,7.167c1.401,1.9,3.073,6.424,3.073,6.424"/>
				<path style="fill:none;stroke:#2A282C;stroke-linejoin:round;stroke-miterlimit:10;" d="M396.516,221.838
					c2.361,1.75,4.512,3.783,6.391,6.042"/>
			</g>
			<polyline style="fill:#FFFFFF;stroke:#2A282C;stroke-linejoin:round;stroke-miterlimit:10;" points="360.258,219.792 
				371.548,217.11 382.837,244.938 361.839,251.538 			"/>
			<path style="fill:#FBAD27;" d="M320.019,156.373c6.255,9.077,11.592,18.327,17.098,33.161
				c5.248,14.137,7.941,26.605,9.609,41.202c3.226,28.217-13.368,54.951-40.128,64.465h0c0,0,5.512-56.38,5.316-60.315
				c-0.197-3.934-11.999-58.816-11.999-58.816L320.019,156.373z"/>
			<path style="fill:#FBAD27;" d="M320.019,156.373c-6.853,2.965-16.617,8.177-20.284,14.681c-5.389,9.557-5.116,17.527-4.27,28.072
				c1.087,13.548,5.051,31.529,9.194,44.438c2.565,7.994,5.22,16.956,13.866,19.417c10.188,2.9,22.027-1.417,32.159-4.565
				c10.551-3.279,27.3-9.009,27.3-9.009l-11.175-31.947l-33.044,7.234l-12.206-37.251"/>
			<polyline style="fill:none;stroke:#2A282C;stroke-linejoin:round;stroke-miterlimit:10;" points="346.808,221.838 
				333.765,224.694 321.559,187.443 			"/>
			<path style="fill:none;stroke:#2A282C;stroke-linejoin:round;stroke-miterlimit:10;" d="M304.659,243.564
				c2.565,7.994,5.22,16.956,13.866,19.417c7.641,2.175,16.211,0.29,24.292-2.116"/>
			
				<line style="fill:none;stroke:#2A282C;stroke-linejoin:round;stroke-miterlimit:10;" x1="374.228" y1="238.669" x2="361.235" y2="242.942"/>
			
				<line style="fill:none;stroke:#2A282C;stroke-linejoin:round;stroke-miterlimit:10;" x1="367.104" y1="232.825" x2="369.056" y2="237.672"/>
			
				<line style="fill:none;stroke:#2A282C;stroke-linejoin:round;stroke-miterlimit:10;" x1="360.258" y1="234.491" x2="362.211" y2="239.338"/>
			<path style="fill:none;stroke:#2A282C;stroke-linejoin:round;stroke-miterlimit:10;" d="M334.09,224.694
				c-3.2,0.554-6.289,1.934-9.075,4.053"/>
		</g>
	</g>
	<g>
		<g>
			
				<line style="fill:none;stroke:#625CD1;stroke-width:2;stroke-miterlimit:10;" x1="506.366" y1="133.447" x2="550.239" y2="176.221"/>
			<path style="fill:#625CD1;" d="M499.13,134.947l13.076,10.089c0,0,7.488-10.551,1.359-15.28
				C507.435,125.027,499.13,134.947,499.13,134.947z"/>
			
				<ellipse transform="matrix(0.992 -0.1261 0.1261 0.992 -15.8313 63.3722)" style="fill:#FCDE9D;" cx="492.734" cy="156.755" rx="12.887" ry="12.887"/>
			<path style="fill:#7983ED;" d="M476.818,140.194l35.973,27.755c0,0,11.259-16.917-5.603-29.928
				C490.326,125.011,476.818,140.194,476.818,140.194z"/>
			
				<line style="fill:none;stroke:#625CD1;stroke-width:2;stroke-miterlimit:10;" x1="513.783" y1="133.447" x2="557.657" y2="176.221"/>
			
				<line style="fill:none;stroke:#625CD1;stroke-width:2;stroke-miterlimit:10;" x1="524.438" y1="261.608" x2="551.491" y2="176.221"/>
			
				<line style="fill:none;stroke:#625CD1;stroke-width:2;stroke-miterlimit:10;" x1="529.759" y1="261.608" x2="557.657" y2="176.221"/>
			<path style="fill:#625CD1;" d="M557.008,183.025h-6.297c-2.298,0-4.161-1.863-4.161-4.161v0c0-2.298,1.863-4.161,4.161-4.161
				h6.297c2.298,0,4.161,1.863,4.161,4.161v0C561.169,181.163,559.306,183.025,557.008,183.025z"/>
			<rect x="512.355" y="253.027" style="fill:#7983ED;" width="27.215" height="11.595"/>
			
				<rect x="539.57" y="253.027" transform="matrix(-1 -1.224647e-16 1.224647e-16 -1 1090.3424 517.648)" style="fill:#625CD1;" width="11.202" height="11.595"/>
		</g>
		<g>
			<rect x="225.839" y="218.089" style="fill:#FFFFFF;" width="74.117" height="46.533"/>
			
				<rect x="299.956" y="218.089" transform="matrix(-1 -1.224647e-16 1.224647e-16 -1 637.9435 482.7098)" style="fill:#E5E7FC;" width="38.032" height="46.533"/>
			<rect x="205.861" y="202.914" style="fill:#FFFFFF;" width="74.117" height="15.174"/>
			
				<rect x="279.978" y="202.914" transform="matrix(-1 -1.224647e-16 1.224647e-16 -1 597.9877 421.0026)" style="fill:#E5E7FC;" width="38.032" height="15.174"/>
			<polygon style="fill:#E5E7FC;" points="290.469,231.667 255.519,231.667 280.926,245.44 			"/>
			<polygon style="fill:#FFFFFF;" points="308.479,245.44 317.068,253.751 333.372,245.44 			"/>
			
				<line style="fill:none;stroke:#E5E7FC;stroke-width:1.5;stroke-miterlimit:10;" x1="297.754" y1="231.56" x2="241.049" y2="231.56"/>
			
				<line style="fill:none;stroke:#E5E7FC;stroke-width:1.5;stroke-miterlimit:10;" x1="271.649" y1="254.833" x2="232.161" y2="254.833"/>
			
				<line style="fill:none;stroke:#CED4F2;stroke-width:1.5;stroke-miterlimit:10;" x1="299.956" y1="245.44" x2="336.064" y2="245.44"/>
			
				<line style="fill:none;stroke:#CED4F2;stroke-width:1.5;stroke-miterlimit:10;" x1="225.839" y1="218.677" x2="337.988" y2="218.677"/>
			
				<line style="fill:none;stroke:#E5E7FC;stroke-width:1.5;stroke-miterlimit:10;" x1="215.522" y1="209.67" x2="279.978" y2="209.67"/>
			
				<line style="fill:none;stroke:#CED4F2;stroke-width:1.5;stroke-miterlimit:10;" x1="312.113" y1="209.67" x2="279.978" y2="209.67"/>
		</g>
		<g>
			<path style="fill:#625CD1;" d="M512.453,200.755H433.91c-2.031,0-3.848,1.418-4.554,3.555l-18.731,56.66h-53.731
				c-1.933,0-3.5,1.758-3.5,3.927h141.695l19.869-60.101C515.605,202.837,514.314,200.755,512.453,200.755z"/>
			<path style="fill:#7983ED;" d="M498.956,264.896h-85.763l20.029-60.587c0.706-2.137,2.523-3.555,4.554-3.555h78.543
				c1.862,0,3.153,2.083,2.505,4.041L498.956,264.896z"/>
			<path style="fill:#625CD1;" d="M476.171,233.783c0,2.698-2.59,4.886-5.784,4.886c-3.194,0-5.784-2.188-5.784-4.886
				c0-2.699,2.59-4.886,5.784-4.886C473.581,228.897,476.171,231.085,476.171,233.783z"/>
		</g>
		<g>
			<path style="fill:#F99C6E;" d="M500.371,261.676H487.65c-2.074,0-3.755-1.681-3.755-3.755v-21.912h20.232v21.912
				C504.127,259.995,502.445,261.676,500.371,261.676z"/>
			<rect x="486.706" y="259.002" style="fill:#F99C6E;" width="14.61" height="4.989"/>
			<path style="fill:none;stroke:#F99C6E;stroke-width:2;stroke-miterlimit:10;" d="M505.756,255.699h-7.873v-14.33h7.873
				c2.064,0,3.736,1.673,3.736,3.736v6.857C509.493,254.026,507.82,255.699,505.756,255.699z"/>
			<line style="fill:none;stroke:#EA7A4E;stroke-miterlimit:10;" x1="486.706" y1="261.496" x2="501.316" y2="261.496"/>
		</g>
		<g>
			
				<line style="fill:none;stroke:#2A282C;stroke-width:1.5;stroke-linejoin:round;stroke-miterlimit:10;" x1="219.224" y1="264.621" x2="567.637" y2="264.621"/>
			<g>
				
					<line style="fill:none;stroke:#2A282C;stroke-width:1.5;stroke-linejoin:round;stroke-miterlimit:10;" x1="235.701" y1="264.745" x2="291.455" y2="453.246"/>
				
					<line style="fill:none;stroke:#2A282C;stroke-width:1.5;stroke-linejoin:round;stroke-miterlimit:10;" x1="269.17" y1="264.745" x2="213.416" y2="453.246"/>
			</g>
			<g>
				
					<line style="fill:none;stroke:#2A282C;stroke-width:1.5;stroke-linejoin:round;stroke-miterlimit:10;" x1="521.517" y1="264.745" x2="577.271" y2="453.246"/>
				
					<line style="fill:none;stroke:#2A282C;stroke-width:1.5;stroke-linejoin:round;stroke-miterlimit:10;" x1="554.986" y1="264.745" x2="499.231" y2="453.246"/>
			</g>
		</g>
	</g>
	<g>
		<g>
			<g>
				<path style="fill:#7E9B6E;" d="M192.708,158.905c-1.895-2.192-4.726-3.114-8.813-1.561
					c-7.369,2.799-12.774,11.871-15.676,18.786c-4.198,10.001-6.023,20.81-7.815,31.508c-2.748,16.401-5.497,32.803-8.246,49.204
					c-0.588,3.508-1.068,7.48,1.114,10.289c1.525,1.963,4.164,2.902,6.635,2.629c2.47-0.273,4.742-1.659,6.36-3.546
					c2.124-2.476,3.152-5.682,4.129-8.795c5.418-17.264,10.836-34.529,16.254-51.793c0.968-3.084,1.936-6.167,2.903-9.251
					c2-6.372,4.64-12.565,5.973-19.132C196.544,172.224,196.392,163.166,192.708,158.905z"/>
				<path style="fill:none;stroke:#54683C;stroke-width:1.5;stroke-linejoin:round;stroke-miterlimit:10;" d="M188.145,162.686
					c-23.611,51.445-34.177,108.942-36.252,165.509"/>
			</g>
			<g>
				<path style="fill:#7E9B6E;" d="M244.538,194.295c-11.053-15.618-37.944,11.508-44.634,19.539
					c-9.846,11.822-15.436,22.915-21.871,36.944c-1.973,4.301-7.854,15.751-1.842,19.29c2.053,1.208,4.773,0.578,6.693-0.831
					c1.921-1.409,3.247-3.459,4.649-5.384c2.521-3.461,5.408-6.639,8.367-9.734c8.324-8.707,17.9-16.653,27.107-24.625
					C232.121,221.603,253.777,207.351,244.538,194.295z"/>
				<path style="fill:none;stroke:#54683C;stroke-width:1.5;stroke-linejoin:round;stroke-miterlimit:10;" d="M158.648,324.12
					c5.434-35.816,21.095-69.976,44.47-97.63c9.168-10.846,19.042-20.331,30.367-28.909"/>
			</g>
			<g>
				<path style="fill:#A8C38B;" d="M127.661,165.744c-2.594-6.996-5.484-13.876-8.869-20.454c-0.962-1.869-1.975-3.713-3.046-5.522
					c-2.871-4.848-6.316-9.633-11.121-12.73c-4.385-2.826-10.508-2.508-13.307,2.365c-2.348,4.086-2.507,9.531-1.781,14.077
					c1.967,12.32,8.726,25.2,13.965,36.438c6.57,14.093,13.832,27.918,20.663,41.906c2.075,4.248,8.006,13.212,13.734,8.306
					c3.414-2.924,3.475-9.369,3.202-13.437C139.933,199.29,133.684,181.987,127.661,165.744z"/>
				<path style="fill:none;stroke:#54683C;stroke-width:1.5;stroke-linejoin:round;stroke-miterlimit:10;" d="M102.094,140.209
					c22.422,46.741,44.697,100.413,45.784,175.501"/>
			</g>
			<g>
				<path style="fill:#7E9B6E;" d="M127.021,271.407c-6.087-19.237-14.045-37.636-22.441-55.957
					c-4.529-9.884-10.129-20.223-20.339-25.234c-5.182-2.543-12.052-2.755-16.192,1.268c-2.36,2.294-3.491,5.642-3.621,8.931
					c-0.129,3.289,0.658,6.547,1.672,9.678c4.023,12.412,11.576,22.328,18.701,33.052c7.677,11.555,14.926,23.394,21.727,35.485
					c3.315,5.894,11.279,22.621,20.33,16.398C132.95,290.841,128.723,276.785,127.021,271.407z"/>
				<path style="fill:none;stroke:#54683C;stroke-width:1.5;stroke-linejoin:round;stroke-miterlimit:10;" d="M84.74,209.076
					c10.062,19.182,19.576,38.653,28.524,58.379c7.892,17.398,15.407,35.202,18.597,54.039"/>
			</g>
			<g>
				<path style="fill:#A8C38B;" d="M110.698,246.877c-9.389-8.602-20.086-15.745-31.587-21.562
					c-10.584-5.353-23.088-7.866-34.436-4.418c-2.977,0.904-6.225,2.685-6.696,5.761c-0.418,2.729,1.564,5.211,3.592,7.083
					c13.228,12.207,32.549,14.801,48.255,23.594c6.46,3.617,12.08,8.983,18.187,13.333c4.33,3.084,15.465,10.534,20.924,6.563
					c2.11-1.535,2.268-4.119,1.415-6.378C126.937,261.805,117.665,253.26,110.698,246.877z"/>
				<path style="fill:none;stroke:#54683C;stroke-width:1.5;stroke-linejoin:round;stroke-miterlimit:10;" d="M52.941,231.781
					c34.23,1.586,67.046,22.689,81.276,56.172c4.22,9.93,6.554,20.952,9.118,31.473"/>
			</g>
			<g>
				<path style="fill:#A8C38B;" d="M179.865,237.404c-4.606,2.687-9.09,5.763-12.454,9.901c-1.462,1.798-2.657,5.015-0.631,6.906
					c3.488,3.258,11.47-1.728,15.149-2.892c20.639-6.528,43.481-3.783,63.333-13.077c2.003-0.938,3.988-2.036,5.463-3.686
					c2.171-2.43,2.693-5.287,1.02-8.222c-1.723-3.021-4.748-3.87-8.022-4.085C221.499,220.792,199.126,226.295,179.865,237.404z"/>
				<path style="fill:none;stroke:#54683C;stroke-width:1.5;stroke-linejoin:round;stroke-miterlimit:10;" d="M144.507,310.62
					c0.149-26.944,9.36-49.213,30.876-64.633c17.56-12.585,49.923-19.366,71.401-17.029"/>
			</g>
			<rect x="120.362" y="309.032" style="fill:#FFFFFF;" width="50.771" height="57.791"/>
			<g>
				
					<line style="fill:none;stroke:#7983ED;stroke-width:2;stroke-miterlimit:10;" x1="113.101" y1="366.823" x2="178.393" y2="366.823"/>
				<path style="fill:none;stroke:#7983ED;stroke-width:2;stroke-miterlimit:10;" d="M190.646,453.246l-15.631-109.643
					c-0.406-2.849-2.846-4.966-5.724-4.966h-47.088c-2.878,0-5.318,2.117-5.724,4.966l-15.631,109.643"/>
			</g>
		</g>
		<g>
			<path style="fill:#625CD1;" d="M175.035,392.226c-7.594,0-15.889,6.644-19.399,17.307l-13.229,43.713h115.532l8.445-61.02
				C266.384,392.226,182.629,392.226,175.035,392.226z"/>
			
				<line style="fill:none;stroke:#2A282C;stroke-width:1.5;stroke-linejoin:round;stroke-miterlimit:10;" x1="153.854" y1="414.604" x2="245.352" y2="414.604"/>
			<path style="fill:none;stroke:#625CD1;stroke-width:2;stroke-miterlimit:10;" d="M201.01,392.749l2.522-9.18
				c0.817-2.974,3.521-5.035,6.605-5.035h22.732c3.329,0,5.744,3.168,4.862,6.378l-2.153,7.837"/>
			<polygon style="fill:none;stroke:#2A282C;stroke-width:1.5;stroke-linejoin:round;stroke-miterlimit:10;" points="
				207.363,422.736 188.574,422.736 189.845,418.698 208.634,418.698 			"/>
			<path style="fill:none;stroke:#2A282C;stroke-width:1.5;stroke-linejoin:round;stroke-miterlimit:10;" d="M233.657,453.246
				l13.229-43.713c2.378-7.797,8.468-13.906,16.257-16.308l3.24-0.999"/>
		</g>
	</g>
	<g>
		
			<line style="fill:none;stroke:#000000;stroke-width:1.5;stroke-miterlimit:10;" x1="127.26" y1="453.246" x2="675.339" y2="453.246"/>
		
			<line style="fill:none;stroke:#000000;stroke-width:1.5;stroke-miterlimit:10;" x1="74.661" y1="453.246" x2="114.768" y2="453.246"/>
	</g>
</g>
</svg>
